<svg xmlns="http://www.w3.org/2000/svg" width="10" height="14.281" viewBox="0 0 10 14.281">
  <defs>
    <style>
      .cls-1 {
        fill-rule: evenodd;
      }
    </style>
  </defs>
  <path id="pin" class="cls-1" d="M379.673,40.061a0.781,0.781,0,0,0,.217.175l0,0,0.141,0.043,0.14-.043,0,0a0.8,0.8,0,0,0,.217-0.175s4.151-4.518,4.568-8.435a5.007,5.007,0,1,0-9.929.009C375.462,35.549,379.673,40.061,379.673,40.061ZM380,27.788a3.223,3.223,0,1,1-3.221,3.223A3.225,3.225,0,0,1,380,27.788Z" transform="translate(-375 -26)"/>
</svg>
