<svg xmlns="http://www.w3.org/2000/svg" width="5.281" height="4.906" viewBox="0 0 5.281 4.906">
  <defs>
    <style>
      .cls-1 {
        fill: #f2af20;
        fill-rule: evenodd;
      }
    </style>
  </defs>
  <path id="check_mark_копия_3" data-name="check mark копия 3" class="cls-1" d="M17.761,530.773a0.512,0.512,0,0,1-.414-0.212c-0.444-.611-0.885-1.153-1.263-1.794a0.608,0.608,0,0,1-.074-0.2A0.621,0.621,0,0,1,16,528.459c0-.009,0-0.017,0-0.025s0-.018,0-0.027,0-.033.006-0.049a0.425,0.425,0,0,1,.2-0.309,0.55,0.55,0,0,1,.688.209c0.271,0.51.536,0.82,0.845,1.317a7.6,7.6,0,0,1,.959-1.389,12.24,12.24,0,0,1,2.414-2.3,0.238,0.238,0,0,1,.149.095,0.19,0.19,0,0,1,.027.07,0.236,0.236,0,0,1,0,.04,0.357,0.357,0,0,1,0,.042,0.8,0.8,0,0,1-.167.36c-0.944,1.284-2.035,2.624-2.913,4.026a0.537,0.537,0,0,1-.425.252H17.761Z" transform="translate(-16 -525.875)"/>
</svg>
