<svg xmlns="http://www.w3.org/2000/svg" width="13" height="12"><path data-name="check mark" d="M4.327 12a1.251 1.251 0 0 1-1.017-.52C2.219 9.98 1.135 8.65.21 7.07a1.39 1.39 0 0 1-.182-.5 1.51 1.51 0 0 1-.023-.25v-.13q0-.06.015-.12a1.032 1.032 0 0 1 .483-.76 1.351 1.351 0 0 1 1.691.51c.666 1.25 1.317 2.02 2.075 3.24a18.341 18.341 0 0 1 2.358-3.41C7.767 4.39 10.949.67 12.558 0a.576.576 0 0 1 .366.23.467.467 0 0 1 .068.17c0 .04.008.07.009.1a.81.81 0 0 1 0 .11 1.942 1.942 0 0 1-.409.88c-2.319 3.16-5 6.45-7.157 9.89A1.305 1.305 0 0 1 4.39 12h-.059z" fill="#f2af20" fill-rule="evenodd"/></svg>