<svg xmlns="http://www.w3.org/2000/svg" width="13" height="9" viewBox="0 0 13 9">
  <defs>
    <style>
      .cls-1 {
        fill-rule: evenodd;
      }
    </style>
  </defs>
  <path id="email" class="cls-1" d="M1206.03,29.525l4.68,3.672a1.494,1.494,0,0,0,1.58,0l4.68-3.672c0.37-.292.29-0.532-0.19-0.532h-10.56C1205.74,28.993,1205.66,29.233,1206.03,29.525Zm11.28,0.969-5.12,3.846a1.247,1.247,0,0,1-1.38,0l-5.12-3.846c-0.38-.285-0.69-0.132-0.69.34v6.31a0.865,0.865,0,0,0,.87.858h11.26a0.865,0.865,0,0,0,.87-0.858V30.833C1218,30.361,1217.69,30.209,1217.31,30.493Z" transform="translate(-1205 -29)"/>
</svg>
