<svg xmlns="http://www.w3.org/2000/svg" width="13" height="13"><path d="M12.988 10.072a1.588 1.588 0 0 0-.7-.489c-.117-.068-.284-.161-.5-.277s-.412-.225-.587-.324l-.5-.286a7.09 7.09 0 0 0-.231-.162 2.621 2.621 0 0 0-.328-.2.6.6 0 0 0-.264-.065.766.766 0 0 0-.462.264 4.5 4.5 0 0 0-.508.572 5.525 5.525 0 0 1-.49.573.706.706 0 0 1-.425.263.626.626 0 0 1-.208-.046c-.083-.031-.147-.057-.19-.078s-.117-.065-.222-.13-.163-.1-.175-.106a9.157 9.157 0 0 1-3.782-3.777c-.006-.013-.041-.071-.106-.176s-.108-.179-.13-.222-.047-.106-.078-.189a.616.616 0 0 1-.046-.208.707.707 0 0 1 .263-.425A5.632 5.632 0 0 1 3.9 4.1a4.507 4.507 0 0 0 .574-.508.767.767 0 0 0 .263-.461.592.592 0 0 0-.065-.264 2.6 2.6 0 0 0-.2-.328l-.162-.231c-.093-.154-.188-.319-.287-.494s-.206-.371-.323-.586-.21-.382-.278-.5a1.576 1.576 0 0 0-.49-.7A.519.519 0 0 0 2.735 0a3.048 3.048 0 0 0-.652.093 3.635 3.635 0 0 0-.633.194 2.478 2.478 0 0 0-.98 1.126A3.583 3.583 0 0 0 0 3.128a3.486 3.486 0 0 0 .032.484 4 4 0 0 0 .116.532c.055.2.1.343.134.438s.1.266.189.513.148.4.166.452a8.359 8.359 0 0 0 .768 1.616 13.727 13.727 0 0 0 1.992 2.443 13.711 13.711 0 0 0 2.445 1.99 8.411 8.411 0 0 0 1.618.767q.084.027.453.166t.513.189c.1.034.242.079.439.135a4.134 4.134 0 0 0 .532.116 3.676 3.676 0 0 0 .485.032 3.583 3.583 0 0 0 1.72-.471 2.476 2.476 0 0 0 1.128-.979 3.665 3.665 0 0 0 .194-.633 3.007 3.007 0 0 0 .092-.651.516.516 0 0 0-.028-.195z" fill-rule="evenodd"/></svg>