<svg xmlns="http://www.w3.org/2000/svg" width="13" height="13" viewBox="0 0 13 13">
  <defs>
    <style>
      .cls-1 {
        fill-rule: evenodd;
      }
    </style>
  </defs>
  <path id="call" class="cls-1" d="M846.988,36.072a1.588,1.588,0,0,0-.7-0.489c-0.117-.068-0.284-0.161-0.5-0.277s-0.412-.225-0.587-0.324-0.341-.194-0.5-0.286c-0.024-.018-0.1-0.073-0.231-0.162a2.621,2.621,0,0,0-.328-0.2,0.6,0.6,0,0,0-.264-0.065,0.766,0.766,0,0,0-.462.264,4.5,4.5,0,0,0-.508.572,5.525,5.525,0,0,1-.49.573,0.706,0.706,0,0,1-.425.263,0.626,0.626,0,0,1-.208-0.046c-0.083-.031-0.147-0.057-0.19-0.078s-0.117-.065-0.222-0.13-0.163-.1-0.175-0.106a9.157,9.157,0,0,1-3.782-3.777c-0.006-.013-0.041-0.071-0.106-0.176s-0.108-.179-0.13-0.222-0.047-.106-0.078-0.189a0.616,0.616,0,0,1-.046-0.208,0.707,0.707,0,0,1,.263-0.425A5.632,5.632,0,0,1,837.9,30.1a4.507,4.507,0,0,0,.574-0.508,0.767,0.767,0,0,0,.263-0.461,0.592,0.592,0,0,0-.065-0.264,2.6,2.6,0,0,0-.2-0.328l-0.162-.231c-0.093-.154-0.188-0.319-0.287-0.494s-0.206-.371-0.323-0.586-0.21-.382-0.278-0.5a1.576,1.576,0,0,0-.49-0.7A0.519,0.519,0,0,0,836.735,26a3.048,3.048,0,0,0-.652.093,3.635,3.635,0,0,0-.633.194,2.478,2.478,0,0,0-.98,1.126A3.583,3.583,0,0,0,834,29.128a3.486,3.486,0,0,0,.032.484,4,4,0,0,0,.116.532c0.055,0.2.1,0.343,0.134,0.438s0.1,0.266.189,0.513,0.148,0.4.166,0.452a8.359,8.359,0,0,0,.768,1.616,13.727,13.727,0,0,0,1.992,2.443,13.711,13.711,0,0,0,2.445,1.99,8.411,8.411,0,0,0,1.618.767q0.084,0.027.453,0.166t0.513,0.189c0.1,0.034.242,0.079,0.439,0.135a4.134,4.134,0,0,0,.532.116,3.676,3.676,0,0,0,.485.032,3.583,3.583,0,0,0,1.72-.471,2.476,2.476,0,0,0,1.128-.979,3.665,3.665,0,0,0,.194-0.633,3.007,3.007,0,0,0,.092-0.651A0.516,0.516,0,0,0,846.988,36.072Z" transform="translate(-834 -26)"/>
</svg>
