<svg xmlns="http://www.w3.org/2000/svg" width="52" height="46" viewBox="0 0 52 46">
  <defs>
    <style>
      .cls-1 {
        fill: #535252;
        fill-rule: evenodd;
      }
    </style>
  </defs>
  <path id="ножницы" class="cls-1" d="M1700.28,3131.83a7.844,7.844,0,0,0,1.39,4.44l-7.69,6.82-26.88-18.73c-1.14-.8-3.1-0.05-3.1-0.05l25.57,22.69L1664,3169.68s1.96,0.75,3.1-.05l26.88-18.73,7.69,6.83a7.858,7.858,0,1,0,9.07-2.96l-11.16-7.77,11.16-7.78A7.84,7.84,0,1,0,1700.28,3131.83Zm12.16,30.61a4.505,4.505,0,1,1-4.51-4.49A4.509,4.509,0,0,1,1712.44,3162.44ZM1694.41,3147a1.125,1.125,0,0,1-2.25,0A1.125,1.125,0,1,1,1694.41,3147Zm18.03-14.87a4.505,4.505,0,1,1-4.51-4.5A4.5,4.5,0,0,1,1712.44,3132.13Z" transform="translate(-1664 -3124)"/>
</svg>
